<svg xmlns="http://www.w3.org/2000/svg" width="600" height="600" viewBox="0 0 600 600" overflow="visible">
  <line x1="49.00" y1="440.00" x2="25.00" y2="440.00" stroke="#2d2b2b" stroke-width="2" stroke-opacity="0.55" stroke-linecap="round"/>
  <line x1="40.36" y1="426.39" x2="32.37" y2="425.97" stroke="#2d2b2b" stroke-width="1" stroke-opacity="0.28" stroke-linecap="round"/>
  <line x1="41.42" y1="412.82" x2="33.47" y2="411.99" stroke="#2d2b2b" stroke-width="1" stroke-opacity="0.28" stroke-linecap="round"/>
  <line x1="43.20" y1="399.33" x2="35.30" y2="398.08" stroke="#2d2b2b" stroke-width="1" stroke-opacity="0.28" stroke-linecap="round"/>
  <line x1="45.68" y1="385.94" x2="37.86" y2="384.28" stroke="#2d2b2b" stroke-width="1" stroke-opacity="0.28" stroke-linecap="round"/>
  <line x1="57.55" y1="375.04" x2="34.37" y2="368.82" stroke="#2d2b2b" stroke-width="2" stroke-opacity="0.55" stroke-linecap="round"/>
  <line x1="52.73" y1="359.66" x2="45.12" y2="357.18" stroke="#2d2b2b" stroke-width="1" stroke-opacity="0.28" stroke-linecap="round"/>
  <line x1="57.27" y1="346.82" x2="49.80" y2="343.96" stroke="#2d2b2b" stroke-width="1" stroke-opacity="0.28" stroke-linecap="round"/>
  <line x1="62.48" y1="334.25" x2="55.17" y2="330.99" stroke="#2d2b2b" stroke-width="1" stroke-opacity="0.28" stroke-linecap="round"/>
  <line x1="68.34" y1="321.96" x2="61.21" y2="318.33" stroke="#2d2b2b" stroke-width="1" stroke-opacity="0.28" stroke-linecap="round"/>
  <line x1="82.63" y1="314.50" x2="61.84" y2="302.50" stroke="#2d2b2b" stroke-width="2" stroke-opacity="0.55" stroke-linecap="round"/>
  <line x1="81.95" y1="298.39" x2="75.24" y2="294.04" stroke="#2d2b2b" stroke-width="1" stroke-opacity="0.28" stroke-linecap="round"/>
  <line x1="89.66" y1="287.18" x2="83.18" y2="282.47" stroke="#2d2b2b" stroke-width="1" stroke-opacity="0.28" stroke-linecap="round"/>
  <line x1="97.94" y1="276.38" x2="91.72" y2="271.34" stroke="#2d2b2b" stroke-width="1" stroke-opacity="0.28" stroke-linecap="round"/>
  <line x1="106.78" y1="266.03" x2="100.84" y2="260.67" stroke="#2d2b2b" stroke-width="1" stroke-opacity="0.28" stroke-linecap="round"/>
  <line x1="122.52" y1="262.52" x2="105.55" y2="245.55" stroke="#2d2b2b" stroke-width="2" stroke-opacity="0.55" stroke-linecap="round"/>
  <line x1="126.03" y1="246.78" x2="120.67" y2="240.84" stroke="#2d2b2b" stroke-width="1" stroke-opacity="0.28" stroke-linecap="round"/>
  <line x1="136.38" y1="237.94" x2="131.34" y2="231.72" stroke="#2d2b2b" stroke-width="1" stroke-opacity="0.28" stroke-linecap="round"/>
  <line x1="147.18" y1="229.66" x2="142.47" y2="223.18" stroke="#2d2b2b" stroke-width="1" stroke-opacity="0.28" stroke-linecap="round"/>
  <line x1="158.39" y1="221.95" x2="154.04" y2="215.24" stroke="#2d2b2b" stroke-width="1" stroke-opacity="0.28" stroke-linecap="round"/>
  <line x1="174.50" y1="222.63" x2="162.50" y2="201.84" stroke="#2d2b2b" stroke-width="2" stroke-opacity="0.55" stroke-linecap="round"/>
  <line x1="181.96" y1="208.34" x2="178.33" y2="201.21" stroke="#2d2b2b" stroke-width="1" stroke-opacity="0.28" stroke-linecap="round"/>
  <line x1="194.25" y1="202.48" x2="190.99" y2="195.17" stroke="#2d2b2b" stroke-width="1" stroke-opacity="0.28" stroke-linecap="round"/>
  <line x1="206.82" y1="197.27" x2="203.96" y2="189.80" stroke="#2d2b2b" stroke-width="1" stroke-opacity="0.28" stroke-linecap="round"/>
  <line x1="219.66" y1="192.73" x2="217.18" y2="185.12" stroke="#2d2b2b" stroke-width="1" stroke-opacity="0.28" stroke-linecap="round"/>
  <line x1="235.04" y1="197.55" x2="228.82" y2="174.37" stroke="#2d2b2b" stroke-width="2" stroke-opacity="0.55" stroke-linecap="round"/>
  <line x1="245.94" y1="185.68" x2="244.28" y2="177.86" stroke="#2d2b2b" stroke-width="1" stroke-opacity="0.28" stroke-linecap="round"/>
  <line x1="259.33" y1="183.20" x2="258.08" y2="175.30" stroke="#2d2b2b" stroke-width="1" stroke-opacity="0.28" stroke-linecap="round"/>
  <line x1="272.82" y1="181.42" x2="271.99" y2="173.47" stroke="#2d2b2b" stroke-width="1" stroke-opacity="0.28" stroke-linecap="round"/>
  <line x1="286.39" y1="180.36" x2="285.97" y2="172.37" stroke="#2d2b2b" stroke-width="1" stroke-opacity="0.28" stroke-linecap="round"/>
  <line x1="300.00" y1="189.00" x2="300.00" y2="165.00" stroke="#2d2b2b" stroke-width="2" stroke-opacity="0.55" stroke-linecap="round"/>
  <line x1="313.61" y1="180.36" x2="314.03" y2="172.37" stroke="#2d2b2b" stroke-width="1" stroke-opacity="0.28" stroke-linecap="round"/>
  <line x1="327.18" y1="181.42" x2="328.01" y2="173.47" stroke="#2d2b2b" stroke-width="1" stroke-opacity="0.28" stroke-linecap="round"/>
  <line x1="340.67" y1="183.20" x2="341.92" y2="175.30" stroke="#2d2b2b" stroke-width="1" stroke-opacity="0.28" stroke-linecap="round"/>
  <line x1="354.06" y1="185.68" x2="355.72" y2="177.86" stroke="#2d2b2b" stroke-width="1" stroke-opacity="0.28" stroke-linecap="round"/>
  <line x1="364.96" y1="197.55" x2="371.18" y2="174.37" stroke="#2d2b2b" stroke-width="2" stroke-opacity="0.55" stroke-linecap="round"/>
  <line x1="380.34" y1="192.73" x2="382.82" y2="185.12" stroke="#2d2b2b" stroke-width="1" stroke-opacity="0.28" stroke-linecap="round"/>
  <line x1="393.18" y1="197.27" x2="396.04" y2="189.80" stroke="#2d2b2b" stroke-width="1" stroke-opacity="0.28" stroke-linecap="round"/>
  <line x1="405.75" y1="202.48" x2="409.01" y2="195.17" stroke="#2d2b2b" stroke-width="1" stroke-opacity="0.28" stroke-linecap="round"/>
  <line x1="418.04" y1="208.34" x2="421.67" y2="201.21" stroke="#2d2b2b" stroke-width="1" stroke-opacity="0.28" stroke-linecap="round"/>
  <line x1="425.50" y1="222.63" x2="437.50" y2="201.84" stroke="#2d2b2b" stroke-width="2" stroke-opacity="0.55" stroke-linecap="round"/>
  <line x1="441.61" y1="221.95" x2="445.96" y2="215.24" stroke="#2d2b2b" stroke-width="1" stroke-opacity="0.28" stroke-linecap="round"/>
  <line x1="452.82" y1="229.66" x2="457.53" y2="223.18" stroke="#2d2b2b" stroke-width="1" stroke-opacity="0.28" stroke-linecap="round"/>
  <line x1="463.62" y1="237.94" x2="468.66" y2="231.72" stroke="#2d2b2b" stroke-width="1" stroke-opacity="0.28" stroke-linecap="round"/>
  <line x1="473.97" y1="246.78" x2="479.33" y2="240.84" stroke="#2d2b2b" stroke-width="1" stroke-opacity="0.28" stroke-linecap="round"/>
  <line x1="477.48" y1="262.52" x2="494.45" y2="245.55" stroke="#2d2b2b" stroke-width="2" stroke-opacity="0.55" stroke-linecap="round"/>
  <line x1="493.22" y1="266.03" x2="499.16" y2="260.67" stroke="#2d2b2b" stroke-width="1" stroke-opacity="0.28" stroke-linecap="round"/>
  <line x1="502.06" y1="276.38" x2="508.28" y2="271.34" stroke="#2d2b2b" stroke-width="1" stroke-opacity="0.28" stroke-linecap="round"/>
  <line x1="510.34" y1="287.18" x2="516.82" y2="282.47" stroke="#2d2b2b" stroke-width="1" stroke-opacity="0.28" stroke-linecap="round"/>
  <line x1="518.05" y1="298.39" x2="524.76" y2="294.04" stroke="#2d2b2b" stroke-width="1" stroke-opacity="0.28" stroke-linecap="round"/>
  <line x1="517.37" y1="314.50" x2="538.16" y2="302.50" stroke="#2d2b2b" stroke-width="2" stroke-opacity="0.55" stroke-linecap="round"/>
  <line x1="531.66" y1="321.96" x2="538.79" y2="318.33" stroke="#2d2b2b" stroke-width="1" stroke-opacity="0.28" stroke-linecap="round"/>
  <line x1="537.52" y1="334.25" x2="544.83" y2="330.99" stroke="#2d2b2b" stroke-width="1" stroke-opacity="0.28" stroke-linecap="round"/>
  <line x1="542.73" y1="346.82" x2="550.20" y2="343.96" stroke="#2d2b2b" stroke-width="1" stroke-opacity="0.28" stroke-linecap="round"/>
  <line x1="547.27" y1="359.66" x2="554.88" y2="357.18" stroke="#2d2b2b" stroke-width="1" stroke-opacity="0.28" stroke-linecap="round"/>
  <line x1="542.45" y1="375.04" x2="565.63" y2="368.82" stroke="#2d2b2b" stroke-width="2" stroke-opacity="0.55" stroke-linecap="round"/>
  <line x1="554.32" y1="385.94" x2="562.14" y2="384.28" stroke="#2d2b2b" stroke-width="1" stroke-opacity="0.28" stroke-linecap="round"/>
  <line x1="556.80" y1="399.33" x2="564.70" y2="398.08" stroke="#2d2b2b" stroke-width="1" stroke-opacity="0.28" stroke-linecap="round"/>
  <line x1="558.58" y1="412.82" x2="566.53" y2="411.99" stroke="#2d2b2b" stroke-width="1" stroke-opacity="0.28" stroke-linecap="round"/>
  <line x1="559.64" y1="426.39" x2="567.63" y2="425.97" stroke="#2d2b2b" stroke-width="1" stroke-opacity="0.28" stroke-linecap="round"/>
  <line x1="551.00" y1="440.00" x2="575.00" y2="440.00" stroke="#2d2b2b" stroke-width="2" stroke-opacity="0.55" stroke-linecap="round"/>
</svg>