<svg xmlns="http://www.w3.org/2000/svg" version="1.1" xmlns:xlink="http://www.w3.org/1999/xlink" width="1000" height="1000"><metadata><rdf:RDF xmlns:rdf="http://www.w3.org/1999/02/22-rdf-syntax-ns#" xmlns:dc="http://purl.org/dc/elements/1.1/"><rdf:Description><dc:creator>RealFaviconGenerator</dc:creator><dc:source>https://realfavicongenerator.net</dc:source></rdf:Description></rdf:RDF></metadata><g clip-path="url(#SvgjsClipPath1144)"><rect width="1000" height="1000" fill="#f2f2f2"></rect><g transform="matrix(0.9765625,0,0,0.9765625,0,0)"><svg xmlns="http://www.w3.org/2000/svg" id="Layer_1" data-name="Layer 1" viewBox="0 0 1024 1024" width="1024" height="1024"><defs><style>.cls-1{fill:#ff4c3e;}</style><clipPath id="SvgjsClipPath1144"><rect width="1000" height="1000" x="0" y="0" rx="350" ry="350"></rect></clipPath></defs><path class="cls-1" d="M938.57,529.42c-12.39-16.36-35.05-22.87-54.68-16-9.18,3.18-18.19,6.85-27.7,10.47-10.93-62.31-39.52-115.23-82.85-160.26-43.67-45.39-96.18-74.56-159-83.81.09-.49.08-.7.16-.76.57-.45,1.16-.88,1.76-1.27,18.22-11.94,34.6-25.88,47.11-43.88a85.73,85.73,0,0,0,9.09-16.38c3.82-9.37-1.68-17.29-11.74-17.33a72.92,72.92,0,0,0-13.89,1.37C614.5,207.62,584,219,554.54,233.44c-1.34.66-2.72,1.24-4.55,2.06,0-1.82,0-2.84,0-3.85a189.78,189.78,0,0,0-14.31-70.74,139.48,139.48,0,0,0-11.85-22.82c-5.69-8.76-14.8-8.83-21.55-.78a56.52,56.52,0,0,0-6.12,9,189.61,189.61,0,0,0-20.76,58.22c-1.78,10-2.37,20.13-3.53,30.5-1.41-.59-3-1.24-4.55-1.93-8-3.56-15.92-7.28-24-10.67-23.87-10-48.42-17.8-74.1-21.59-6.58-1-13.09-.82-17.37,5.32-4.42,6.34-1.34,12.27,1.83,18A124.57,124.57,0,0,0,380,256.73c9.43,8.39,19.55,16,29.26,23.84C348,290.66,295.66,319.1,251.64,363.09S179,459.37,166.94,521c-8.61-3.31-16.55-6.59-24.65-9.41a50.36,50.36,0,0,0-35.54.75c-28.65,11-41.27,54.17-23.22,79.17a16,16,0,0,0,20.73,4.4c6.9-4,9.15-12,5.62-19.8-1.33-2.89-2.9-5.82-3.49-8.9-1.71-9-1-17.7,6.44-24.14,7.27-6.29,15.63-5.35,24-2.17,5.85,2.23,11.63,4.67,17.47,7,8.44,3.32,8.45,3.3,7.94,12.56,0,.72-.08,1.46-.11,2.18-2.39,65.64,15.54,125.59,52.51,179.46,42.24,61.52,99.93,103.51,169.9,128.52,65.19,23.31,132.1,27.71,200.09,15.07,45.18-8.41,87.61-24.29,126.63-48.7,44.07-27.57,79.36-63.85,106.12-108.44a303.77,303.77,0,0,0,38.89-104.76,291.46,291.46,0,0,0,4-66.68c-.07-1.14.7-3.06,1.55-3.4,11.13-4.33,22.15-9.11,33.59-12.44,10.8-3.13,20.91,4,23.23,15,1.62,7.72,0,15-3.28,22.06-1.53,3.29-2.74,7.24-2.43,10.75.55,6.41,4.81,10.46,11.1,12s13.5-1,16.56-7,5.87-12.82,7.06-19.57C950.46,558.44,948.73,542.83,938.57,529.42ZM199,530.75c10.48-56.21,36.5-104.23,76.52-144.77A258.26,258.26,0,0,1,379,321.78a190.92,190.92,0,0,1,58.89-9.73c1,0,1.93.09,3.15.16-4.92,7.09-10.29,13.5-14.17,20.71-6.76,12.56-12.68,25.57-18.77,38.47-2.33,4.9-2.72,10,1.5,14.23s9.33,3.47,14.27,1.5c31.63-12.61,61.41-28.35,87-51.26.43-.37.9-.71,1.66-1.32,2.85,2.44,5.6,5,8.52,7.3,24.59,19.47,51.93,33.92,81.29,44.68,4.93,1.8,9.88,2.25,13.92-1.77s3.3-9.08,1.55-13.94a190.81,190.81,0,0,0-30.69-54.71c-1-1.24-1.94-2.52-3.69-4.82,8.12.47,15.31.55,22.42,1.35,56.69,6.43,103.53,32.64,142.76,72.9C786.15,424.12,811,470,822.28,522.86c1,4.4,3.24,9.9,1.53,13.09s-7.6,4-11.75,5.69c-11.73,4.67-23.52,9.23-35,13.7-17.18-61.44-55-98-120.21-102.66-65.72,2.33-103.81,38.47-122.18,99.55-14.67-6-29.88-6.31-44.55,0-18.85-61.12-57.08-97.34-123.09-99.15-64,5.14-101.84,40.75-118.6,101.67-2.27-.85-4.85-1.76-7.38-2.79C228,546.61,214.92,541.18,201.78,536,199.05,534.9,198.44,533.54,199,530.75ZM710.52,656.24a91.11,91.11,0,0,1-55.88,18.46c-43-.24-80.35-30.73-90.08-73.56-10.43-45.92,11.43-92,53.87-110.59,34.05-14.92,66.5-9.62,95.28,13.4C762.55,543,760.7,619.07,710.52,656.24Zm-293.74,5c-14.27,8.75-29.9,12.89-52,13-40.9-.11-80.77-35-87.41-81.12C271.18,550.38,294,508,332.27,491.29c42.43-18.57,89.09-4.72,114.61,34C476.89,570.84,463.21,632.77,416.78,661.27ZM819.7,636Q789.26,751.86,686.45,813.57c-48.3,28.91-101,43.27-157.11,45.86-51,2.36-100.41-5.26-147.69-24.76-68.65-28.33-122.09-74-156.85-140.21-20.3-38.66-30.36-80-29.55-123.81,0-1.42.14-2.85.25-5,7.25,2.91,14.11,5.62,20.95,8.4,9.17,3.73,18.31,7.58,27.53,11.2,2.31.91,3.36,2,3.61,4.63,5,56.32,45.77,101.72,101.23,112.05,37,6.87,70.06-2.72,98.66-26.88,27-22.82,41.16-52.32,43.86-87.5a7.92,7.92,0,0,1,3-5.21c10.17-7.07,26.65-6.83,36.76.52a7.48,7.48,0,0,1,2.4,5.07,125.91,125.91,0,0,0,17.84,57A120.6,120.6,0,0,0,744,665.63c19.53-21,30.9-45.76,33.77-74.31.32-3.19,1.43-4.76,4.46-5.92,14.83-5.64,29.55-11.55,45-17.64A235.81,235.81,0,0,1,819.7,636Z"></path></svg></g></g></svg>