<svg id="Layer_1" data-name="Layer 1" xmlns="http://www.w3.org/2000/svg" viewBox="0 0 1600 1600"><defs><style>.cls-1{fill:#153b50;}</style></defs><path class="cls-1" d="M1185.67,643.14c-11.2-14.79-31.7-20.68-49.44-14.51-8.3,2.88-16.45,6.2-25,9.47-9.89-56.34-35.73-104.18-74.91-144.89-39.48-41-87-67.41-143.76-75.78.09-.44.08-.63.15-.69.52-.4,1.05-.79,1.6-1.15,16.46-10.78,31.27-23.39,42.58-39.66a77.2,77.2,0,0,0,8.23-14.81c3.45-8.48-1.52-15.63-10.62-15.67a65.47,65.47,0,0,0-12.56,1.24c-29.23,5.52-56.81,15.81-83.44,28.86-1.21.59-2.46,1.12-4.12,1.86,0-1.65,0-2.57,0-3.48A171.57,171.57,0,0,0,821.4,310a124.68,124.68,0,0,0-10.72-20.64c-5.14-7.92-13.37-8-19.48-.7a50.88,50.88,0,0,0-5.53,8.16,171.54,171.54,0,0,0-18.77,52.64c-1.61,9-2.14,18.2-3.19,27.58-1.28-.54-2.7-1.12-4.11-1.75-7.23-3.21-14.39-6.58-21.68-9.64-21.58-9.06-43.78-16.09-67-19.52-5.95-.87-11.84-.74-15.71,4.81-4,5.73-1.21,11.09,1.66,16.25a112.73,112.73,0,0,0,23.75,29.44c8.53,7.58,17.68,14.45,26.46,21.55C651.7,427.28,604.41,453,564.61,492.77s-65.69,87-76.58,142.78c-7.79-3-15-6-22.29-8.51a45.54,45.54,0,0,0-32.13.68c-25.9,10-37.31,49-21,71.57a14.42,14.42,0,0,0,18.74,4c6.24-3.61,8.27-10.89,5.08-17.9-1.2-2.62-2.62-5.27-3.15-8-1.55-8.12-.91-16,5.82-21.83,6.57-5.68,14.13-4.83,21.65-2,5.29,2,10.51,4.22,15.79,6.29,7.64,3,7.64,3,7.18,11.35,0,.66-.07,1.33-.09,2-2.17,59.35,14,113.55,47.47,162.25C569.29,891,621.46,929,684.71,951.61c58.94,21.07,119.44,25,180.91,13.62,40.85-7.6,79.21-22,114.48-44a289.81,289.81,0,0,0,95.95-98,274.56,274.56,0,0,0,35.16-94.71,263.57,263.57,0,0,0,3.65-60.29c0-1,.63-2.77,1.41-3.07,10.06-3.92,20-8.24,30.36-11.25,9.77-2.83,18.91,3.57,21,13.55,1.47,7,0,13.52-3,20-1.38,3-2.47,6.54-2.2,9.71.5,5.8,4.36,9.46,10,10.84s12.21-.89,15-6.35a65.59,65.59,0,0,0,6.39-17.69C1196.42,669.38,1194.85,655.27,1185.67,643.14ZM517,644.34c9.48-50.82,33-94.23,69.18-130.88a233.36,233.36,0,0,1,93.56-58,172.25,172.25,0,0,1,53.24-8.8c.88,0,1.75.08,2.85.15-4.45,6.4-9.31,12.2-12.82,18.72-6.11,11.35-11.46,23.11-17,34.78-2.09,4.43-2.45,9,1.36,12.86s8.43,3.14,12.91,1.36c28.59-11.4,55.52-25.64,78.62-46.34.39-.34.82-.64,1.51-1.2,2.57,2.21,5.06,4.51,7.7,6.6,22.23,17.6,47,30.67,73.5,40.4,4.45,1.63,8.93,2,12.57-1.6s3-8.21,1.41-12.6a172.28,172.28,0,0,0-27.75-49.47c-.89-1.12-1.75-2.28-3.33-4.36,7.34.43,13.84.5,20.26,1.23,51.26,5.81,93.61,29.5,129.08,65.9,34,34.9,56.42,76.36,66.67,124.16.86,4,2.92,8.95,1.38,11.83s-6.87,3.65-10.63,5.15c-10.6,4.23-21.26,8.34-31.62,12.39C1024.13,611,989.9,578,931,573.76c-59.42,2.11-93.86,34.78-110.46,90-13.27-5.43-27-5.71-40.29,0-17-55.26-51.6-88-111.28-89.64-57.85,4.65-92.07,36.84-107.23,91.92-2.05-.77-4.38-1.6-6.67-2.53-11.84-4.8-23.64-9.71-35.52-14.41C517.06,648.09,516.51,646.87,517,644.34ZM979.49,757.81A82.44,82.44,0,0,1,929,774.49c-38.88-.21-72.64-27.78-81.44-66.51-9.43-41.51,10.33-83.16,48.7-100,30.79-13.49,60.13-8.7,86.15,12.11C1026.52,655.43,1024.85,724.2,979.49,757.81Zm-265.58,4.54c-12.9,7.92-27,11.65-47,11.75-37-.11-73-31.6-79-73.35-5.55-38.66,15.09-76.94,49.67-92.08,38.36-16.78,80.55-4.27,103.62,30.73C768.26,680.59,755.89,736.58,713.91,762.35Zm364.29-22.84Q1050.67,844.26,957.72,900c-43.66,26.14-91.34,39.12-142,41.47-46.13,2.13-90.79-4.75-133.53-22.39-62.07-25.61-110.39-66.92-141.81-126.76a228.52,228.52,0,0,1-26.72-111.94c0-1.29.13-2.58.23-4.49,6.56,2.62,12.76,5.08,18.94,7.59,8.29,3.37,16.56,6.85,24.89,10.13,2.09.82,3,1.79,3.26,4.18,4.56,50.92,41.39,92,91.53,101.3,33.44,6.22,63.34-2.45,89.2-24.3,24.4-20.63,37.21-47.3,39.65-79.11a7.21,7.21,0,0,1,2.73-4.71c9.2-6.38,24.09-6.17,33.24.48a6.76,6.76,0,0,1,2.16,4.58,113.94,113.94,0,0,0,16.14,51.56,109,109,0,0,0,174.13,18.66,112.84,112.84,0,0,0,30.53-67.18c.29-2.89,1.29-4.3,4-5.36,13.41-5.1,26.72-10.44,40.67-15.94A213.44,213.44,0,0,1,1078.2,739.51Z"/><path class="cls-1" d="M1101.48,1189c20.33-20.8,48-25.49,74.48-12.48,18.7,9.21,28.27,25.2,29.28,45.16,1.32,25.92.73,52,.54,77.93-.06,8.49-6.5,14-15.46,14.88s-15.72-3.43-17.69-11.93a51.69,51.69,0,0,1-1-11.34c-.05-20.26.12-40.53,0-60.79,0-11-3.93-20.21-13.88-25.72-15.94-8.83-35.06-.14-39.21,17.75a54.63,54.63,0,0,0-1.16,12.06c-.09,20.5.08,41,0,61.51-.06,11.91-6.18,18.34-17,18.35s-17.27-6.58-17.38-18.31c-.21-21.7,0-43.39,0-65.09,0-11.81-4-21.7-15.29-26.92-18.84-8.69-38,3.22-38.35,24.1-.44,22.88-.08,45.78-.21,68.67,0,9.91-4.81,15.85-13.49,17.49-11.63,2.2-20.48-4.74-20.55-16.58-.15-24.32-.46-48.65.09-73,.8-35.52,31.52-59.88,68.3-54.78C1080.17,1172.33,1086.8,1175.65,1101.48,1189Z"/><path class="cls-1" d="M776,1295.58c-25.09,31-80.19,24.88-102.37-8.6-24.33-36.74-13-98.33,33.73-113.54,25-8.14,47.87-4.06,69,15,0-8.9,0-16.59,0-24.29,0-8.81-.1-17.63,0-26.44.18-10.58,6.67-17,16.92-17.13,9.75-.07,16.64,6.2,17,16.38.4,11.19.1,22.39.1,33.59q0,62.88,0,125.77c0,14-11.29,22.07-24.11,17.31C780.37,1311.43,778.28,1307.87,776,1295.58Zm.28-52.91a41.54,41.54,0,0,0-41.18-41.59c-22.94-.07-39.83,17.46-39.9,41.44-.08,23.18,17.12,41,39.62,41C758.6,1283.47,776.37,1266,776.27,1242.67Z"/><path class="cls-1" d="M942.22,1293.88c-14.33,17.64-31.83,23.17-51.94,21.75-38.82-2.75-68.73-40.73-63.47-80.5,4.61-34.76,27.37-60,59.8-64.83,20.87-3.13,39.61,2.28,53.64,17,3.27-4.64,5.76-10.15,10-13.47,2.79-2.2,8.17-2.1,12.17-1.52a14.26,14.26,0,0,1,12.5,14.38q.3,56.44.07,112.9c0,9.11-7.52,15.28-17.27,15.34-9,.06-14.26-4.93-15.15-14.49C942.41,1299,942.4,1297.56,942.22,1293.88Zm-1.6-51.54c-.25-23.91-17.73-41.59-40.83-41.3-22,.27-39,19-38.86,42.65.12,22.93,17.78,40.35,40.47,39.92S940.86,1265.48,940.62,1242.34Z"/><path class="cls-1" d="M149.85,1254.49c7.1,27.47,38.06,39.36,63.92,25.66a83.26,83.26,0,0,0,7.82-5c7.47-5.07,14.82-4.31,20.3,2.16,5.83,6.87,5.82,15.91-1.15,21.65a76.76,76.76,0,0,1-18.16,11.09c-30.41,13.11-68.07,6.45-89.27-16.73-21.39-23.4-25-51.13-13.29-79.86,11.49-28.2,33.76-43.17,64.42-43.94,42.68-1.07,73.8,29,72.79,69.61-.27,11-4.2,15.1-15.24,15.16-26.21.14-52.41.13-78.62.18ZM222.68,1228c-1.89-16.31-17.64-28.36-35.72-28.17s-34,12.77-35.33,28.17h71.05Z"/><path class="cls-1" d="M644.05,1222.45c0,10.49.15,21,0,31.46-.6,34.1-23.44,59-57.38,61.45a112.88,112.88,0,0,1-31.19-2c-27.1-5.73-44.83-28.23-45.15-56-.25-22.16-.15-44.33-.1-66.5,0-11.92,6.6-19.14,17.25-19.26,10.91-.12,17.24,6.79,17.26,18.95,0,19.55,0,39.09,0,58.64,0,23.27,15.57,36.82,38.49,33.66,16.21-2.24,26.63-14.7,26.81-32.7.21-20.26,0-40.52.07-60.78,0-11.48,7.3-18.28,18.57-17.66,9.17.51,15.16,6.69,15.34,16.39C644.21,1199.57,644.05,1211,644.05,1222.45Z"/><path class="cls-1" d="M1358.81,1223.38c0,10,.1,20,0,30-.38,34-23.19,59-57,61.81a100.25,100.25,0,0,1-26.3-1.07c-29.85-5.53-48.64-27.68-49.32-58-.51-22.63-.21-45.29-.06-67.94.08-10.64,6.2-16.59,16.37-16.59,10.87,0,17.36,6.34,17.39,17.25.07,20.5-.26,41,.11,61.51.42,23.05,17.3,36.59,39.66,32.37,14.74-2.78,24.47-15.25,24.65-32.39.21-20.5.07-41,0-61.51,0-6.76,2.11-12.37,8.36-15.36,6.66-3.19,14-3.47,19.51,1.56a22,22,0,0,1,6.39,13.34c.9,11.61.3,23.34.3,35Z"/><path class="cls-1" d="M323.58,1316c-17.57.11-34-3.65-48.79-13.65-5.84-4-9.09-9.15-7.66-16.35s5.79-12.7,12.94-13.52c4.29-.5,9.71,1.46,13.36,4.07,12.14,8.7,25.14,12.26,39.78,9.11,6.29-1.35,12.42-3.67,13.1-11.16.7-7.75-4.74-11.63-11.22-13.72-10.64-3.43-21.48-6.2-32.13-9.58-22.19-7-32.21-19.59-31.25-38.67,1.06-21.31,14.27-36.74,35.87-41.3,21-4.43,40.77-.56,59.16,10.17,10.6,6.19,11.72,15.31,3.52,24.27-5.6,6.12-11.48,7.1-18.36,2.38a46.79,46.79,0,0,0-28.18-8.69,30,30,0,0,0-8.41,1.4c-5.09,1.64-9.82,5-8.82,10.55.72,4,4.18,8.2,7.57,10.82,3.21,2.48,7.89,3.11,12,4.38,9.09,2.83,18.31,5.26,27.3,8.36,18.17,6.27,26.84,17.1,27.49,35s-6.77,32-23.37,39.07C347,1313.45,323.75,1316.69,323.58,1316Z"/><path class="cls-1" d="M1428.28,1316.07c-15.81-.18-32.24-3.36-46.53-13.74-8.29-6-10.45-13-7.1-21,4.27-10.28,15-13.21,23.89-5.94,12.07,9.88,25.44,13.58,40.67,10.22a24.33,24.33,0,0,0,7.27-2.83c7.62-4.58,8.23-14.12.62-18.67-5.6-3.35-12.2-5.1-18.46-7.29-9.64-3.37-19.81-5.56-29-9.9-25.74-12.2-28.9-48.91-5.94-65.94,18.92-14,40-14,61.34-7.51a85.5,85.5,0,0,1,20.54,9.73c7.7,4.87,8.34,12.09,3,19.72-5.65,8-12.89,10-20.16,5.18-9-6-18.76-9.35-29.61-8.58a27.54,27.54,0,0,0-10.27,2.55c-8.46,4.3-9.1,14.12-.8,18.67,6.15,3.37,13.33,4.85,20.07,7.13,8.78,3,17.82,5.32,26.31,9,13.22,5.66,21.43,15.5,22.33,30.5,1,16.45-4,30.08-18.39,39.26C1456.37,1314,1443.25,1315.91,1428.28,1316.07Z"/><path class="cls-1" d="M412.87,1203.34c-8.05-2.88-17.29,2.38-22.77-5.54-2-2.9-2.91-7-3.09-10.64-.3-6.05,1.79-11.94,8-13.76,5.31-1.55,11.19-1.16,17.73-1.7,0-10.44,0-20.84,0-31.24,0-11.89,7.16-19.54,18-19.4,10,.13,16.47,7.53,16.59,19.19.11,10.42,0,20.84,0,32,11.29,0,21.7,0,32.1,0s16.62,6,16.45,15.43c-.16,9.07-6.3,14.48-16.62,14.52s-20.45,0-30.29,0c-.7.78-1.29,1.12-1.3,1.47-.09,21.19-.79,42.41,0,63.57.6,15.91,12.41,21.37,28.33,14.09,6-2.74,11.54-2.93,16.52,1.74,5.2,4.87,7.28,11.37,4.25,17.54a23,23,0,0,1-10.9,10.44c-16,6.57-32.69,7.39-48.73.63-17.09-7.2-23.88-21.89-24.27-39.58-.44-19.28-.1-38.58-.09-57.88Z"/></svg>