<svg id="Layer_1" data-name="Layer 1" xmlns="http://www.w3.org/2000/svg" viewBox="0 0 4264.64 930.28"><defs><style>.cls-1{fill:#153b50;}</style></defs><path class="cls-1" d="M976,479.76c-10.4-13.73-29.43-19.2-45.9-13.47-7.71,2.67-15.27,5.75-23.25,8.79-9.18-52.31-33.18-96.73-69.55-134.53-36.66-38.1-80.74-62.58-133.47-70.35.08-.41.06-.59.14-.64.48-.38,1-.74,1.47-1.07,15.29-10,29-21.72,39.54-36.83a71.69,71.69,0,0,0,7.64-13.75c3.21-7.87-1.41-14.51-9.85-14.55a61.08,61.08,0,0,0-11.67,1.16c-27.13,5.12-52.75,14.67-77.47,26.79-1.12.55-2.28,1-3.82,1.73,0-1.53,0-2.38,0-3.24a159.21,159.21,0,0,0-12-59.37,116.41,116.41,0,0,0-9.95-19.16c-4.78-7.36-12.42-7.41-18.09-.66a47.68,47.68,0,0,0-5.13,7.59,159,159,0,0,0-17.43,48.87c-1.5,8.36-2,16.9-3,25.61-1.19-.5-2.51-1.05-3.82-1.63-6.71-3-13.36-6.1-20.13-9-20-8.41-40.64-14.94-62.21-18.12-5.52-.81-11-.69-14.58,4.46-3.7,5.32-1.12,10.3,1.54,15.1a104.43,104.43,0,0,0,22.05,27.32c7.92,7,16.41,13.42,24.56,20-51.41,8.47-95.32,32.35-132.27,69.27s-61,80.82-71.1,132.57c-7.23-2.78-13.9-5.53-20.7-7.9a42.34,42.34,0,0,0-29.83.63c-24.05,9.26-34.64,45.47-19.49,66.46a13.39,13.39,0,0,0,17.4,3.69c5.8-3.34,7.68-10.1,4.72-16.61-1.11-2.44-2.44-4.89-2.93-7.48-1.44-7.54-.84-14.86,5.4-20.26S296,486.75,303,489.42c4.91,1.87,9.76,3.91,14.66,5.84,7.09,2.79,7.1,2.77,6.67,10.54,0,.61-.07,1.23-.09,1.84-2,55.1,13,105.42,44.08,150.64,35.45,51.64,83.88,86.89,142.61,107.88,54.73,19.57,110.89,23.26,168,12.65,37.93-7.06,73.54-20.39,106.29-40.88a269.09,269.09,0,0,0,89.09-91A255.19,255.19,0,0,0,906.87,559a244.74,244.74,0,0,0,3.39-56c0-.95.59-2.57,1.31-2.85,9.34-3.64,18.58-7.65,28.19-10.44,9.07-2.63,17.55,3.31,19.5,12.58,1.36,6.48,0,12.54-2.75,18.52a18.64,18.64,0,0,0-2,9c.46,5.38,4,8.78,9.32,10.06s11.33-.82,13.89-5.9a60.43,60.43,0,0,0,5.93-16.42C986,504.12,984.53,491,976,479.76Zm-620.85,1.12c8.79-47.19,30.64-87.49,64.23-121.53a216.74,216.74,0,0,1,86.86-53.88,160.3,160.3,0,0,1,49.44-8.18c.81,0,1.62.09,2.64.14-4.13,5.95-8.64,11.33-11.9,17.39-5.67,10.54-10.64,21.46-15.75,32.29-1.95,4.12-2.28,8.38,1.26,11.94s7.83,2.91,12,1.26c26.55-10.58,51.55-23.8,73-43,.36-.32.76-.6,1.4-1.11,2.39,2.05,4.7,4.18,7.15,6.13,20.64,16.33,43.59,28.47,68.24,37.5,4.14,1.51,8.29,1.89,11.68-1.49s2.77-7.62,1.31-11.7a160.13,160.13,0,0,0-25.77-45.92c-.83-1.05-1.62-2.12-3.09-4.05,6.81.4,12.84.46,18.81,1.14,47.59,5.39,86.91,27.39,119.84,61.19,31.57,32.4,52.39,70.89,61.91,115.28.79,3.69,2.71,8.31,1.27,11s-6.38,3.39-9.86,4.78c-9.85,3.92-19.74,7.75-29.36,11.5C826,450,794.23,419.25,739.53,415.34c-55.16,2-87.14,32.3-102.56,83.57-12.32-5-25.08-5.3-37.4,0-15.83-51.3-47.91-81.71-103.32-83.22-53.72,4.31-85.49,34.2-99.56,85.34-1.91-.71-4.07-1.48-6.19-2.34-11-4.47-22-9-33-13.39C355.22,484.36,354.71,483.22,355.15,480.88ZM784.57,586.22a76.49,76.49,0,0,1-46.91,15.5c-36.1-.2-67.45-25.8-75.61-61.75-8.76-38.55,9.59-77.22,45.21-92.83,28.59-12.53,55.83-8.08,80,11.24C828.24,491.17,826.69,555,784.57,586.22ZM538,590.44c-12,7.35-25.09,10.82-43.69,10.91-34.34-.1-67.8-29.34-73.38-68.1-5.15-35.9,14-71.44,46.13-85.49,35.62-15.59,74.79-4,96.2,28.53C588.45,514.53,577,566.52,538,590.44Zm338.23-21.2q-25.56,97.25-111.86,149c-40.54,24.27-84.81,36.32-131.88,38.49-42.83,2-84.29-4.41-124-20.78C450.87,712.22,406,673.87,376.83,618.31A212.09,212.09,0,0,1,352,514.38c0-1.2.12-2.4.21-4.18,6.09,2.44,11.84,4.72,17.58,7.05,7.71,3.13,15.38,6.36,23.12,9.41,1.94.76,2.82,1.66,3,3.88,4.23,47.28,38.42,85.39,85,94.06,31.05,5.77,58.81-2.28,82.82-22.57,22.66-19.15,34.55-43.92,36.82-73.45a6.68,6.68,0,0,1,2.53-4.37c8.54-5.93,22.37-5.73,30.86.44a6.26,6.26,0,0,1,2,4.26,105.82,105.82,0,0,0,15,47.86A101.23,101.23,0,0,0,812.64,594.1,104.74,104.74,0,0,0,841,531.73c.28-2.68,1.2-4,3.75-5,12.44-4.73,24.81-9.69,37.76-14.8A198,198,0,0,1,876.22,569.24Z"/><path class="cls-1" d="M3221.29,404.19c41.81-42.78,98.84-52.44,153.21-25.66,38.47,18.94,58.15,51.84,60.23,92.89,2.71,53.33,1.51,106.87,1.11,160.31-.13,17.46-13.36,28.88-31.8,30.61-18.66,1.75-32.33-7.06-36.38-24.55-1.75-7.53-2-15.53-2-23.31-.11-41.69.23-83.38.07-125.07-.09-22.55-8.07-41.56-28.55-52.9-32.78-18.16-72.11-.28-80.66,36.51-1.87,8-2.34,16.52-2.37,24.8-.19,42.18.16,84.36-.06,126.54-.12,24.51-12.71,37.74-35,37.76-21.91,0-35.51-13.55-35.75-37.68-.43-44.62.08-89.26,0-133.89,0-24.29-8.2-44.65-31.45-55.37-38.76-17.88-78.07,6.61-78.89,49.58-.9,47.06-.16,94.16-.42,141.24-.12,20.4-9.9,32.61-27.77,36-23.92,4.52-42.13-9.75-42.28-34.1-.3-50-.94-100.07.19-150.07,1.65-73.07,64.85-123.17,140.5-112.69C3177.45,369.86,3191.09,376.69,3221.29,404.19Z"/><path class="cls-1" d="M2551.73,623.4c-51.63,63.84-165,51.18-210.59-17.69-50.06-75.59-26.75-202.28,69.38-233.57,51.4-16.74,98.48-8.36,141.95,30.86V353c0-18.13-.2-36.27.09-54.39.36-21.77,13.73-35.08,34.81-35.24,20.05-.15,34.23,12.75,35,33.7.81,23,.19,46.05.19,69.08q0,129.38,0,258.73c0,28.9-23.22,45.39-49.6,35.62C2560.72,656,2556.43,648.69,2551.73,623.4Zm.57-108.84c-.19-47.2-38-85.4-84.72-85.55-47.18-.16-81.92,35.92-82.08,85.24-.16,47.69,35.21,84.24,81.51,84.23C2515.94,598.48,2552.5,562.5,2552.3,514.56Z"/><path class="cls-1" d="M2893.67,619.91c-29.48,36.28-65.47,47.66-106.85,44.73C2707,659,2645.44,580.85,2656.27,499c9.47-71.49,56.3-123.35,123-133.35,42.92-6.44,81.47,4.69,110.34,34.86,6.72-9.55,11.84-20.88,20.51-27.71,5.73-4.52,16.81-4.33,25-3.12,15.26,2.25,25.62,14.24,25.7,29.57q.63,116.13.15,232.26c-.09,18.73-15.46,31.43-35.53,31.55-18.58.12-29.33-10.14-31.15-29.81C2894.07,630.4,2894,627.48,2893.67,619.91Zm-3.3-106c-.51-49.19-36.47-85.57-84-85-45.17.57-80.21,39-79.94,87.75.26,47.17,36.59,83,83.27,82.12S2890.87,561.49,2890.37,513.89Z"/><path class="cls-1" d="M1263.69,538.88c14.6,56.5,78.29,81,131.48,52.78a175,175,0,0,0,16.1-10.24c15.36-10.43,30.47-8.87,41.75,4.44,12,14.13,12,32.73-2.36,44.53a158.13,158.13,0,0,1-37.35,22.82c-62.56,27-140,13.26-183.64-34.42-44-48.14-51.41-105.17-27.35-164.27,23.63-58,69.45-88.82,132.52-90.4,87.8-2.2,151.81,59.68,149.74,143.2-.56,22.71-8.64,31.05-31.35,31.17-53.91.29-107.83.28-161.74.38C1282.74,538.89,1274,538.88,1263.69,538.88Zm149.81-54.55c-3.88-33.54-36.29-58.33-73.49-57.94-37,.39-70,26.26-72.67,57.94H1413.5Z"/><path class="cls-1" d="M2280.3,473c0,21.58.31,43.16-.07,64.72-1.23,70.15-48.22,121.32-118,126.4a232.77,232.77,0,0,1-64.16-4c-55.76-11.79-92.23-58.08-92.88-115.22-.52-45.59-.31-91.2-.21-136.8.06-24.52,13.58-39.37,35.49-39.62,22.44-.25,35.47,14,35.51,39,.06,40.2,0,80.41,0,120.61.11,47.87,32,75.74,79.18,69.25,33.36-4.6,54.79-30.23,55.16-67.27.43-41.67,0-83.35.15-125,.09-23.6,15-37.59,38.2-36.32,18.87,1,31.19,13.76,31.54,33.71C2280.63,425.89,2280.31,449.43,2280.3,473Z"/><path class="cls-1" d="M3750.65,474.87c0,20.6.19,41.2,0,61.8-.78,70-47.69,121.36-117.35,127.14-17.88,1.49-36.51,1.08-54.1-2.18-61.4-11.39-100-57-101.46-119.4-1-46.56-.44-93.18-.12-139.76.16-21.9,12.75-34.13,33.68-34.13,22.36,0,35.7,13,35.77,35.48.15,42.18-.53,84.37.23,126.53.85,47.42,35.57,75.27,81.57,66.59,30.34-5.72,50.35-31.37,50.71-66.63.44-42.17.14-84.35-.09-126.53-.07-13.91,4.33-25.45,17.2-31.61,13.69-6.54,28.9-7.13,40.13,3.23,7,6.48,12.41,17.84,13.15,27.43,1.84,23.89.61,48,.61,72Z"/><path class="cls-1" d="M1621.06,665.46c-36.14.24-70-7.5-100.35-28.07-12-8.15-18.71-18.82-15.77-33.63s11.91-26.12,26.62-27.82c8.83-1,20,3,27.48,8.37,25,17.89,51.72,25.23,81.84,18.75,12.93-2.78,25.55-7.56,26.94-23,1.44-16-9.75-23.94-23.08-28.23-21.88-7-44.19-12.75-66.09-19.71-45.65-14.5-66.26-40.29-64.3-79.54,2.2-43.84,29.38-75.58,73.81-85,43.18-9.11,83.87-1.16,121.69,20.92,21.81,12.74,24.11,31.5,7.25,49.92-11.53,12.6-23.62,14.6-37.79,4.9-17.59-12-36.72-18.4-58-17.87a61.8,61.8,0,0,0-17.29,2.87c-10.48,3.37-20.21,10.32-18.16,21.7,1.49,8.23,8.61,16.87,15.59,22.26,6.59,5.1,16.21,6.41,24.62,9,18.69,5.81,37.66,10.81,56.16,17.2,37.36,12.89,55.2,35.17,56.54,72s-13.91,65.82-48.07,80.37C1669.14,660.17,1621.41,666.82,1621.06,665.46Z"/><path class="cls-1" d="M3893.55,665.55c-32.53-.37-66.33-6.92-95.72-28.27-17-12.39-21.5-26.66-14.6-43.28,8.78-21.14,30.87-27.17,49.14-12.21,24.82,20.33,52.34,27.93,83.65,21a50.33,50.33,0,0,0,15-5.82c15.67-9.43,16.94-29.06,1.28-38.41-11.53-6.89-25.1-10.5-38-15-19.83-6.93-40.75-11.45-59.6-20.38-53-25.09-59.45-100.6-12.22-135.64,38.93-28.89,82.19-28.69,126.19-15.44,14.79,4.45,29.14,11.73,42.25,20,15.85,10,17.16,24.87,6.08,40.57-11.61,16.44-26.52,20.67-41.45,10.65-18.56-12.45-38.6-19.23-60.93-17.64-7.16.5-14.79,2-21.12,5.24-17.41,8.84-18.72,29.05-1.64,38.4,12.65,6.93,27.43,10,41.29,14.66,18.06,6.1,36.64,11,54.11,18.44,27.2,11.63,44.09,31.88,45.93,62.74,2,33.85-8.26,61.87-37.82,80.77C3951.33,661.33,3924.34,665.22,3893.55,665.55Z"/><path class="cls-1" d="M1804.74,433.65c-16.56-5.92-35.56,4.9-46.84-11.39-4.14-6-6-14.44-6.35-21.9-.62-12.44,3.68-24.55,16.5-28.3,10.92-3.19,23-2.38,36.47-3.49,0-21.48,0-42.88,0-64.28.06-24.44,14.73-40.18,37.1-39.9,20.54.26,33.88,15.5,34.13,39.49.21,21.42,0,42.85,0,65.92,23.23,0,44.63-.09,66,0s34.17,12.27,33.83,31.74c-.33,18.65-13,29.78-34.18,29.87-21,.1-42.08,0-62.32,0-1.45,1.59-2.66,2.31-2.67,3-.2,43.59-1.63,87.24,0,130.76,1.24,32.73,25.53,44,58.27,29,12.35-5.64,23.74-6,34,3.57,10.68,10,15,23.39,8.72,36.08-4.34,8.85-13.36,17.77-22.42,21.49-32.84,13.5-67.23,15.19-100.23,1.29-35.16-14.82-49.13-45-49.94-81.41-.89-39.67-.19-79.38-.18-119.07Z"/></svg>